<?xml version="1.0" standalone="no"?>
<!DOCTYPE svg PUBLIC "-//W3C//DTD SVG 20010904//EN"
 "http://www.w3.org/TR/2001/REC-SVG-20010904/DTD/svg10.dtd">
<svg version="1.0" xmlns="http://www.w3.org/2000/svg"
 width="740.000000pt" height="740.000000pt" viewBox="0 0 740.000000 740.000000"
 preserveAspectRatio="xMidYMid meet">

<g transform="translate(0.000000,740.000000) scale(0.100000,-0.100000)"
fill="#000000" stroke="none">
<path d="M4850 5855 c-336 -47 -652 -192 -970 -444 -130 -103 -374 -343 -544
-536 -168 -191 -412 -459 -454 -498 l-29 -28 -84 54 c-187 122 -321 169 -479
171 -82 1 -117 -3 -157 -18 -29 -11 -53 -24 -53 -28 0 -4 -6 -8 -14 -8 -21 0
-109 -76 -148 -128 -53 -72 -55 -90 -4 -45 92 81 206 83 297 5 33 -28 58 -71
131 -221 49 -102 106 -210 126 -240 81 -121 212 -236 352 -306 30 -15 123 -54
205 -85 176 -67 301 -123 405 -180 107 -59 190 -113 190 -125 0 -17 -112 -184
-177 -266 -119 -146 -352 -350 -495 -433 -27 -16 -48 -29 -48 -31 0 -6 140 34
235 67 163 56 369 156 428 206 9 8 20 12 23 9 10 -10 -110 -212 -188 -317 -39
-52 -72 -102 -73 -110 -1 -8 -7 -14 -13 -13 -6 1 -32 -23 -58 -53 -34 -41 -42
-55 -28 -52 10 2 18 10 16 17 -2 9 3 11 13 7 9 -3 13 -2 10 4 -3 6 -1 10 5 10
6 0 8 5 5 10 -3 5 -2 10 4 10 5 0 11 -5 13 -11 3 -10 78 26 78 38 0 2 -5 1
-12 -3 -7 -4 -8 -3 -4 5 4 6 12 9 17 5 20 -12 203 129 342 265 l98 96 -6 -40
c-10 -58 -42 -183 -60 -234 -17 -48 -19 -63 -6 -43 4 7 27 15 51 17 24 3 51
12 61 21 11 10 19 13 19 8 0 -12 55 70 88 131 23 44 27 47 30 26 10 -62 -47
-307 -95 -406 l-14 -30 24 29 c72 84 168 281 212 433 55 188 70 462 39 685
-19 141 -72 345 -118 463 -21 51 -43 131 -51 185 -8 52 -18 109 -21 125 -5 24
2 19 34 -32 93 -143 204 -347 268 -493 27 -62 34 -71 41 -55 4 11 8 126 8 255
-1 221 -3 241 -27 330 -14 52 -40 126 -57 164 -17 38 -29 71 -27 74 8 7 225
-170 410 -336 59 -53 113 -96 118 -94 5 1 7 -1 4 -6 -3 -5 17 -31 44 -57 28
-27 50 -45 50 -41 0 5 6 3 14 -3 20 -17 27 0 10 24 -8 10 -14 13 -14 6 0 -7
-5 -9 -10 -6 -12 7 5 45 21 45 6 0 7 -4 4 -10 -3 -5 -1 -10 4 -10 16 0 14 11
-29 144 -65 198 -150 352 -264 474 -27 29 -47 54 -44 57 6 7 309 -119 462
-192 151 -72 328 -166 384 -205 23 -16 42 -26 42 -22 0 4 7 -1 16 -12 9 -10
-6 21 -31 71 -126 240 -320 473 -494 596 -34 24 -58 45 -52 47 5 2 73 -13 151
-33 79 -19 152 -33 164 -30 17 5 18 4 6 -5 -12 -9 -9 -10 13 -5 19 4 26 2 22
-5 -3 -5 -2 -10 4 -10 5 0 17 -3 27 -7 11 -4 15 -3 11 4 -4 6 -1 13 5 16 7 2
1 8 -14 12 -16 4 -28 11 -28 16 0 5 11 40 24 78 23 67 23 69 5 74 -14 4 -19
14 -19 36 0 17 5 31 10 31 15 0 12 12 -11 40 -11 14 -18 19 -14 12 6 -11 3
-12 -14 -3 -11 7 -21 14 -21 17 0 3 6 2 13 -1 47 -25 -50 40 -106 70 -63 34
-82 39 -196 51 -69 8 -135 14 -146 14 -17 0 -17 2 -5 10 13 9 13 11 0 19 -12
8 -12 23 -3 96 6 48 16 91 23 95 10 6 9 9 -1 13 -10 4 -10 6 -1 6 6 1 12 6 12
12 0 14 -96 4 -208 -22 -105 -24 -118 -24 -125 1 -6 25 2 60 15 60 5 0 6 9 3
21 -5 15 1 29 22 51 26 28 26 30 6 24 -15 -5 -23 -3 -23 5 0 8 -5 8 -17 -2
-16 -13 -17 -12 -4 3 7 10 17 15 22 12 5 -3 9 -1 9 4 0 11 137 101 232 151
143 76 365 146 553 173 88 13 89 13 45 20 -75 11 -339 7 -440 -7z m-433 -541
c-3 -3 -12 -4 -19 -1 -8 3 -5 6 6 6 11 1 17 -2 13 -5z m430 -1496 c-3 -7 -5
-2 -5 12 0 14 2 19 5 13 2 -7 2 -19 0 -25z m-47 -43 c19 -19 32 -35 29 -35 -3
0 -20 16 -39 35 -19 19 -32 35 -29 35 3 0 20 -16 39 -35z m-1500 -176 c0 -5 5
-9 10 -9 6 0 10 7 10 15 0 9 6 12 15 9 20 -8 19 -27 -9 -114 -25 -77 -30 -77
-40 0 -4 25 -9 62 -13 83 -5 32 -3 36 11 31 9 -3 16 -10 16 -15z m290 -185 c0
-8 -4 -14 -10 -14 -5 0 -10 9 -10 21 0 11 5 17 10 14 6 -3 10 -13 10 -21z"/>
<path d="M5268 4888 c2 -10 8 -18 13 -18 5 0 6 8 2 18 -6 15 -3 15 18 -3 l24
-20 -18 21 c-21 26 -46 27 -39 2z"/>
<path d="M4882 3710 c0 -14 2 -19 5 -12 2 6 2 18 0 25 -3 6 -5 1 -5 -13z"/>
<path d="M3846 2353 c-6 -14 -5 -15 5 -6 7 7 10 15 7 18 -3 3 -9 -2 -12 -12z"/>
<path d="M3779 2263 c-13 -16 -12 -17 4 -4 16 13 21 21 13 21 -2 0 -10 -8 -17
-17z"/>
<path d="M2117 1695 c-107 -37 -158 -172 -108 -280 75 -163 323 -147 371 23
48 175 -97 317 -263 257z m144 -71 c74 -37 78 -190 5 -237 -61 -40 -166 -14
-192 48 -57 138 58 254 187 189z"/>
<path d="M4363 1700 c-70 -16 -99 -52 -91 -116 4 -38 52 -69 126 -82 87 -15
130 -36 138 -66 16 -67 -27 -106 -116 -106 -56 0 -81 10 -121 47 -20 18 -29
21 -34 12 -13 -20 48 -66 104 -78 135 -29 236 52 186 149 -15 30 -55 46 -166
69 -69 14 -105 47 -95 86 16 64 155 90 214 40 22 -18 33 -22 38 -14 10 16 -28
46 -74 59 -42 11 -63 11 -109 0z"/>
<path d="M1690 1505 l0 -195 135 0 135 0 0 30 0 30 -100 0 -100 0 0 165 0 165
-35 0 -35 0 0 -195z"/>
<path d="M2450 1505 l0 -195 35 0 35 0 0 65 0 65 38 0 c33 0 43 -7 97 -66 57
-62 62 -66 99 -62 l40 3 -57 64 -58 64 35 20 c19 11 40 30 47 43 18 35 15 105
-6 138 -29 44 -70 56 -195 56 l-110 0 0 -195z m236 113 c21 -21 23 -74 3 -93
-9 -8 -43 -15 -89 -17 l-75 -3 -3 69 -3 68 75 -4 c54 -2 81 -8 92 -20z"/>
<path d="M2830 1505 l0 -195 145 0 145 0 0 35 0 35 -110 0 -110 0 0 45 0 45
105 0 105 0 0 35 0 35 -105 0 -105 0 0 45 0 45 110 0 110 0 0 35 0 35 -145 0
-145 0 0 -195z"/>
<path d="M3180 1505 l0 -195 35 0 35 0 0 140 c0 77 3 140 8 140 4 -1 34 -39
66 -85 69 -98 62 -99 142 15 27 38 52 69 57 70 4 0 7 -63 7 -140 l0 -140 35 0
35 0 0 195 0 195 -43 0 c-43 0 -44 -1 -101 -80 -31 -44 -61 -80 -66 -80 -4 0
-34 36 -66 80 -56 79 -58 80 -101 80 l-43 0 0 -195z"/>
<path d="M3790 1505 c0 -167 2 -195 15 -195 13 0 15 28 15 195 0 167 -2 195
-15 195 -13 0 -15 -28 -15 -195z"/>
<path d="M3910 1505 c0 -167 2 -195 15 -195 12 0 15 14 15 70 l0 70 90 0 c107
0 140 13 165 66 26 55 15 111 -29 151 l-36 33 -110 0 -110 0 0 -195z m220 160
c37 -19 50 -43 50 -95 0 -33 -6 -48 -29 -71 -28 -28 -33 -29 -120 -29 l-91 0
0 105 0 105 80 0 c53 0 91 -5 110 -15z"/>
<path d="M4640 1560 c0 -160 10 -198 62 -230 26 -17 45 -20 95 -18 114 7 143
60 143 267 0 98 -3 121 -14 121 -12 0 -15 -28 -18 -151 l-3 -151 -39 -35 c-35
-33 -42 -35 -87 -31 -59 6 -94 34 -109 87 -5 20 -10 91 -10 159 0 74 -4 122
-10 122 -6 0 -10 -53 -10 -140z"/>
<path d="M5020 1505 c0 -165 2 -195 15 -195 12 0 15 28 17 173 l3 172 75 -112
c41 -62 77 -113 80 -113 3 0 37 49 75 110 39 60 73 110 78 110 4 0 7 -76 7
-170 0 -107 4 -170 10 -170 6 0 10 72 10 195 0 168 -2 195 -15 195 -9 0 -47
-48 -86 -107 -39 -60 -74 -109 -78 -111 -4 -1 -41 47 -81 108 -107 162 -110
159 -110 -85z"/>
</g>
</svg>
